# xmcd CD database file generated by MAGIX-FreeDB-MP3_Maker_15 v2.0beta1
#
# Track frame offsets:
#      150
#      17325
#      37167
#      50715
#      60535
#      73792
#      85880
#      103075
#      118382
#      130565
#      146015
#      159525
#      175602
#      187902
#
# Disc length: 2661 seconds
#
# Revision: 2
# Processed by: cddbd v1.5.2PL0 Copyright (c) Steve Scherf et al.
# Submitted via: MAGIX-FreeDB-MP3_Maker_15 v2.0beta1
#
DISCID=c10a630e
DTITLE=Tom Astor - Country Welthits
DYEAR=1998
DGENRE=Country
TTITLE0=Tom Astor - Lucille
TTITLE1=Tom Astor - Der Feigling des Jahrhunderts
TTITLE2=Tom Astor - Wer hat ein Herz das nie bricht
TTITLE3=Tom Astor - Adios Amigo
TTITLE4=Tom Astor - Take Me Home Country Roads
TTITLE5=Tom Astor - Five Hundred Miles Away From Home
TTITLE6=Tom Astor - Under The Boardwalk
TTITLE7=Tom Astor - Das ist meine Freiheit
TTITLE8=Tom Astor - Wer Liebe sucht
TTITLE9=Tom Astor - Bist Du Einsam Heut Nacht
TTITLE10=Tom Astor - Du bist das größte für mich
TTITLE11=Tom Astor - Doch ich habe dich geliebt
TTITLE12=Tom Astor - Du bist mein bester Freund
TTITLE13=Tom Astor - Ein unbekannter Stuntman
EXTD=
EXTT0=
EXTT1=Coward Of The County
EXTT2=Some Broken Hearts Never Mend
EXTT3=
EXTT4=
EXTT5=
EXTT6=
EXTT7=Rhinestone Cowboy
EXTT8=Stand By Your Man
EXTT9=
EXTT10=The Most Beautiful Girl
EXTT11=Always On My Mind
EXTT12=Your'e My Best Friend
EXTT13=Unknown Stundman
PLAYORDER=
